<svg width="1381" height="781" viewBox="0 0 1381 781" fill="none" xmlns="http://www.w3.org/2000/svg">
<path d="M0 606V781H911.5C812.928 691.5 746.223 691.935 617 738C528.048 652.931 464.25 638.36 328 673.5C214.757 584.701 141.431 576.328 0 606Z" fill="#1E2829"/>
<path d="M911.5 134.5C948.951 213.886 1035.58 232.52 1118 193.5C1163.17 278.197 1228.53 306.007 1381 321.5V199.5C1269.97 219.747 1193.54 202.082 1118 142C1038.04 164.582 992.862 163.543 911.5 134.5Z" fill="#E0E3E5"/>
<path d="M0 426.5C85.5591 416.293 138.256 407.347 188 285.5C284.378 295.563 329.154 281.276 375.5 226C486.07 218.154 533.705 196.276 560 129C596.863 140.28 617.291 141.161 653.5 134.5C611.274 114.163 591.977 98.9455 570 61C461.303 108.339 402.122 105.635 300 51C180.528 102.054 115.038 99.2356 0 56.5V426.5Z" fill="#2B2D2F"/>
<path d="M653.5 134.5C749.123 168.622 811.374 163.473 887 122.5L911.5 134.5C992.862 163.543 1038.04 164.582 1118 142C1193.54 202.082 1269.97 219.747 1381 199.5V0H0V56.5C115.038 99.2356 180.528 102.054 300 51C402.122 105.635 461.303 108.339 570 61C591.977 98.9455 611.274 114.163 653.5 134.5Z" fill="#0C0F13"/>
</svg>
