<svg width="1370" height="402" viewBox="0 0 1370 402" fill="none" xmlns="http://www.w3.org/2000/svg">
<path d="M591.111 268.341C642.123 284.83 678.202 328.228 682.5 387C761.542 323.121 899.464 315.776 995.5 366.5C1033.72 322.224 1090.32 307.584 1157 331C1220.19 307.917 1264.76 300.814 1369.5 307L1365.5 0C1242.4 10.9737 1189 24.0199 1120 89.5C1063.54 35.0199 941.212 24.2937 885.5 122.5C808.428 113.816 757.163 136.816 721.5 191.5C659.319 197.015 627.661 216.29 591.111 268.341Z" fill="#B6BBC1"/>
<path d="M682.5 387C593.469 370.96 545.017 369.143 466 402H1369.5V307C1264.76 300.814 1220.19 307.917 1157 331C1090.32 307.584 1033.72 322.224 995.5 366.5C899.464 315.776 761.542 323.121 682.5 387Z" fill="#0C0F13"/>
<path d="M49.4966 381.62C34.0176 383.428 17.6979 385.334 0 387V402H466C377.598 384.11 332.174 382.086 259.5 395C173.067 367.186 120.002 373.384 49.4966 381.62Z" fill="#0C0F13"/>
<path d="M120.5 168C72.0244 154.209 45.724 151.256 0 155V387C17.6979 385.334 34.0176 383.428 49.4966 381.62C120.002 373.384 173.067 367.186 259.5 395C332.174 382.086 377.598 384.11 466 402C545.017 369.143 593.469 370.96 682.5 387C678.202 328.228 642.123 284.83 591.111 268.341C564.095 259.609 532.891 258.424 500 266.5C468.723 197.31 419.049 176.399 345.5 192.5C301.248 91.7784 177.68 76.9779 120.5 168Z" fill="#2B2D2F"/>
</svg>
