<svg width="791" height="579" viewBox="0 0 791 579" fill="none" xmlns="http://www.w3.org/2000/svg">
<g opacity="0.5" filter="url(#filter0_df_137_344)">
<path d="M4 20C4 11.1634 11.1634 4 20 4H771C779.837 4 787 11.1634 787 20V555C787 563.837 779.837 571 771 571H20C11.1634 571 4 563.837 4 555V20Z" fill="#1B1A25"/>
<path d="M20 4.5H771C779.56 4.5 786.5 11.4396 786.5 20V555C786.5 563.56 779.56 570.5 771 570.5H20C11.4396 570.5 4.5 563.56 4.5 555V20C4.5 11.4396 11.4396 4.5 20 4.5Z" stroke="#E0E3E5"/>
</g>
<defs>
<filter id="filter0_df_137_344" x="0" y="0" width="791" height="579" filterUnits="userSpaceOnUse" color-interpolation-filters="sRGB">
<feFlood flood-opacity="0" result="BackgroundImageFix"/>
<feColorMatrix in="SourceAlpha" type="matrix" values="0 0 0 0 0 0 0 0 0 0 0 0 0 0 0 0 0 0 127 0" result="hardAlpha"/>
<feOffset dy="4"/>
<feGaussianBlur stdDeviation="2"/>
<feComposite in2="hardAlpha" operator="out"/>
<feColorMatrix type="matrix" values="0 0 0 0 0 0 0 0 0 0 0 0 0 0 0 0 0 0 0.25 0"/>
<feBlend mode="normal" in2="BackgroundImageFix" result="effect1_dropShadow_137_344"/>
<feBlend mode="normal" in="SourceGraphic" in2="effect1_dropShadow_137_344" result="shape"/>
<feGaussianBlur stdDeviation="2" result="effect2_foregroundBlur_137_344"/>
</filter>
</defs>
</svg>
