<svg width="36" height="43" viewBox="0 0 36 43" fill="none" xmlns="http://www.w3.org/2000/svg">
<path fill-rule="evenodd" clip-rule="evenodd" d="M13.5 8.01855H13.2998C12.8506 8.01855 12.4286 8.12751 12.0332 8.34473C11.6431 8.5533 11.2998 8.84053 11.0049 9.20312C10.7199 9.55354 10.4882 9.97163 10.3105 10.46C10.1439 10.9422 10.0606 11.4491 10.0605 11.9834C10.0605 12.5966 10.0691 13.2045 10.0869 13.8066C10.105 14.4075 10.105 15.0037 10.0869 15.5938C10.0777 16.1783 10.0371 16.7524 9.96387 17.3154C9.88932 17.8768 9.76309 18.4167 9.58594 18.9326C9.40712 19.4534 9.16334 19.9481 8.85645 20.417C8.6029 20.8044 8.29241 21.1651 7.92676 21.5C8.29241 21.8349 8.6029 22.1956 8.85645 22.583C9.16334 23.0519 9.40712 23.5466 9.58594 24.0674C9.7633 24.5839 9.8894 25.1291 9.96387 25.7012C10.0372 26.2538 10.0777 26.8278 10.0869 27.4229C10.105 28.0021 10.105 28.5976 10.0869 29.209C10.0691 29.8001 10.0605 30.4032 10.0605 31.0166C10.0606 31.5622 10.1435 32.0744 10.3096 32.5557C10.4869 33.0324 10.7191 33.4512 11.0049 33.8135C11.2998 34.1651 11.6416 34.4512 12.0322 34.6709C12.4278 34.8775 12.8501 34.9814 13.2998 34.9814H13.5V37.625H13.2998C12.5947 37.625 11.9116 37.4597 11.2529 37.1289C10.5934 36.7977 10.011 36.3219 9.50781 35.7031C9.00694 35.0871 8.63488 34.4134 8.39844 33.6807L8.39746 33.6768C8.17603 32.9619 8.02797 32.2237 7.9541 31.4629V31.458C7.89025 30.6951 7.8721 29.9161 7.89941 29.1211C7.92615 28.3431 7.93945 27.5651 7.93945 26.7871C7.93945 26.254 7.85191 25.7477 7.67676 25.2656L7.67578 25.2607C7.50773 24.7751 7.27722 24.3586 6.98438 24.0088L6.97949 24.0039C6.69514 23.644 6.35541 23.3589 5.95703 23.1504L5.95312 23.1484C5.55722 22.931 5.13993 22.8213 4.7002 22.8213H4.5V20.1787H4.7002C5.14075 20.1787 5.55881 20.0742 5.95508 19.8672C6.35537 19.647 6.69732 19.3613 6.98242 19.0107C7.27723 18.6482 7.50765 18.2293 7.67578 17.7539L7.67676 17.751C7.85167 17.2696 7.93945 16.7578 7.93945 16.2129C7.93945 15.4349 7.92615 14.6569 7.89941 13.8789C7.8721 13.0839 7.89018 12.31 7.9541 11.5576V11.5537C8.02793 10.7822 8.17591 10.0385 8.39746 9.32324L8.39844 9.31934C8.63488 8.58665 9.00694 7.91287 9.50781 7.29688C10.011 6.6781 10.5934 6.20233 11.2529 5.87109C11.9116 5.54028 12.5947 5.375 13.2998 5.375H13.5V8.01855ZM22.7002 5.375C23.4053 5.375 24.0884 5.54027 24.7471 5.87109C25.4065 6.20233 25.989 6.6781 26.4922 7.29688C26.9931 7.91287 27.3651 8.58665 27.6016 9.31934L27.6025 9.32324C27.824 10.0381 27.972 10.7763 28.0459 11.5371V11.542C28.1097 12.3049 28.1279 13.0839 28.1006 13.8789C28.0739 14.6569 28.0605 15.4349 28.0605 16.2129C28.0605 16.746 28.1481 17.2523 28.3232 17.7344L28.3242 17.7393C28.4923 18.2249 28.7228 18.6414 29.0156 18.9912L29.0205 18.9961C29.3049 19.356 29.6446 19.6411 30.043 19.8496L30.0469 19.8516C30.4428 20.069 30.8601 20.1787 31.2998 20.1787H31.5V22.8213H31.2998C30.8593 22.8213 30.4412 22.9258 30.0449 23.1328C29.6446 23.353 29.3027 23.6387 29.0176 23.9893C28.7228 24.3518 28.4924 24.7707 28.3242 25.2461L28.3232 25.249C28.1483 25.7304 28.0605 26.2422 28.0605 26.7871C28.0605 27.5651 28.0739 28.3431 28.1006 29.1211C28.1279 29.9161 28.1098 30.69 28.0459 31.4424V31.4463C27.9721 32.2178 27.8241 32.9615 27.6025 33.6768L27.6016 33.6807C27.3651 34.4134 26.9931 35.0871 26.4922 35.7031C25.989 36.3219 25.4065 36.7977 24.7471 37.1289C24.0884 37.4597 23.4053 37.625 22.7002 37.625H22.5V34.9814H22.7002C23.1494 34.9814 23.5714 34.8725 23.9668 34.6553C24.3569 34.4467 24.7002 34.1595 24.9951 33.7969C25.2801 33.4465 25.5118 33.0284 25.6895 32.54C25.8561 32.0578 25.9394 31.5509 25.9395 31.0166C25.9395 30.4034 25.9309 29.7955 25.9131 29.1934C25.895 28.5925 25.895 27.9963 25.9131 27.4062C25.9223 26.8217 25.9629 26.2476 26.0361 25.6846C26.1107 25.1232 26.2369 24.5833 26.4141 24.0674C26.5929 23.5466 26.8367 23.0519 27.1436 22.583C27.3971 22.1956 27.7076 21.8349 28.0732 21.5C27.7076 21.1651 27.3971 20.8044 27.1436 20.417C26.8367 19.9481 26.5929 19.4534 26.4141 18.9326C26.2367 18.4161 26.1106 17.8709 26.0361 17.2988C25.9628 16.7462 25.9223 16.1722 25.9131 15.5771C25.895 14.9979 25.895 14.4024 25.9131 13.791C25.9309 13.1999 25.9395 12.5968 25.9395 11.9834C25.9394 11.4378 25.8565 10.9256 25.6904 10.4443C25.5131 9.96761 25.2809 9.54885 24.9951 9.18652C24.7002 8.83491 24.3584 8.54879 23.9678 8.3291C23.5722 8.12254 23.1499 8.01855 22.7002 8.01855H22.5V5.375H22.7002Z" fill="white"/>
</svg>
