<svg width="30" height="30" viewBox="0 0 30 30" fill="none" xmlns="http://www.w3.org/2000/svg">
<path d="M26.25 1.25038H3.75C2.75544 1.25038 1.80161 1.64547 1.09835 2.34873C0.395088 3.05199 0 4.00582 0 5.00038L0 28.7504H30V5.00038C30 4.00582 29.6049 3.05199 28.9017 2.34873C28.1984 1.64547 27.2446 1.25038 26.25 1.25038V1.25038ZM3.75 3.75038H26.25C26.5815 3.75038 26.8995 3.88208 27.1339 4.1165C27.3683 4.35092 27.5 4.66886 27.5 5.00038V5.83413L17.6525 15.6829C16.948 16.3845 15.9943 16.7785 15 16.7785C14.0057 16.7785 13.052 16.3845 12.3475 15.6829L2.5 5.83413V5.00038C2.5 4.66886 2.6317 4.35092 2.86612 4.1165C3.10054 3.88208 3.41848 3.75038 3.75 3.75038V3.75038ZM2.5 26.2504V9.37538L10.58 17.4504C11.7533 18.6207 13.3428 19.2779 15 19.2779C16.6572 19.2779 18.2467 18.6207 19.42 17.4504L27.5 9.37538V26.2504H2.5Z" fill="white"/>
</svg>
