<svg width="30" height="30" viewBox="0 0 30 30" fill="none" xmlns="http://www.w3.org/2000/svg">
<g clip-path="url(#clip0_90_337)">
<path fill-rule="evenodd" clip-rule="evenodd" d="M14.9541 0C6.69725 0 0 6.69725 0 14.9541C0 21.5596 4.31193 27.156 10.1835 29.1743C10.9174 29.2661 11.1927 28.8073 11.1927 28.4404C11.1927 28.0734 11.1927 27.156 11.1927 25.8716C7.06422 26.789 6.14679 23.8532 6.14679 23.8532C5.50459 22.1101 4.49541 21.6514 4.49541 21.6514C3.11927 20.7339 4.58716 20.7339 4.58716 20.7339C6.05505 20.8257 6.88073 22.2936 6.88073 22.2936C8.25688 24.5872 10.367 23.945 11.1927 23.578C11.2844 22.5688 11.7431 21.9266 12.1101 21.5596C8.80734 21.1927 5.3211 19.9083 5.3211 14.1284C5.3211 12.4771 5.87156 11.1927 6.88073 10.0917C6.78899 9.81651 6.23853 8.25688 7.06422 6.23853C7.06422 6.23853 8.34862 5.87156 11.1927 7.79816C12.3853 7.43119 13.6697 7.33945 14.9541 7.33945C16.2385 7.33945 17.5229 7.52294 18.7156 7.79816C21.5596 5.87156 22.844 6.23853 22.844 6.23853C23.6697 8.25688 23.1193 9.81651 23.0275 10.1835C23.945 11.1927 24.5872 12.5688 24.5872 14.2202C24.5872 20 21.1009 21.1927 17.7982 21.5596C18.3486 22.0183 18.8073 22.9358 18.8073 24.3119C18.8073 26.3303 18.8073 27.8899 18.8073 28.4404C18.8073 28.8073 19.0826 29.2661 19.8165 29.1743C25.7798 27.156 30 21.5596 30 14.9541C29.9083 6.69725 23.211 0 14.9541 0Z" fill="white"/>
</g>
<defs>
<clipPath id="clip0_90_337">
<rect width="30" height="30" fill="white"/>
</clipPath>
</defs>
</svg>
