<svg width="30" height="30" viewBox="0 0 30 30" fill="none" xmlns="http://www.w3.org/2000/svg">
<path d="M16.875 2.53125V26.9062L15.2812 27.5254L8.04395 20.3066H2.8125L1.875 19.3691V9.99414L2.8125 9.05664H8.04395L15.2812 1.875L16.875 2.53125ZM9.09375 10.6504L8.4375 10.9316H3.75V18.4316H8.4375L9.09375 18.75L15 24.6377V4.7998L9.09375 10.6504ZM25.1758 6.39258C27.019 8.65266 28.125 11.5378 28.125 14.6816C28.1249 17.8314 27.0147 20.7214 25.165 22.9834L23.8291 21.6475C25.343 19.7312 26.2499 17.3133 26.25 14.6816C26.25 12.0559 25.3486 9.64172 23.8408 7.72754L25.1758 6.39258ZM22.5059 9.06348C23.6797 10.6292 24.375 12.5742 24.375 14.6816C24.3749 16.7955 23.6745 18.7453 22.4941 20.3135L21.1504 18.9697C21.9995 17.7541 22.4999 16.2769 22.5 14.6816C22.5 13.0926 22.0042 11.6201 21.1611 10.4072L22.5059 9.06348ZM19.8076 11.7607C20.326 12.6122 20.625 13.6119 20.625 14.6816C20.6249 15.7576 20.322 16.7625 19.7979 17.6172L18.4131 16.2324C18.6283 15.7596 18.7499 15.235 18.75 14.6816C18.75 14.1349 18.6322 13.6159 18.4219 13.1475L19.8076 11.7607Z" fill="white"/>
</svg>
