<svg width="36" height="40" viewBox="0 0 36 40" fill="none" xmlns="http://www.w3.org/2000/svg">
<path d="M15.1123 8.87338C15.5021 9.08153 15.75 9.51951 15.75 10V30C15.75 30.4805 15.5021 30.9185 15.1123 31.1266C14.7226 31.3348 14.2599 31.2763 13.9222 30.9761L8.60537 26.25H3.375C2.75368 26.25 2.25 25.6904 2.25 25V15C2.25 14.3097 2.75368 13.75 3.375 13.75H8.60537L13.9222 9.02393C14.2599 8.72376 14.7226 8.66523 15.1123 8.87338ZM13.5 12.6008L9.70278 15.9761C9.5033 16.1534 9.25546 16.25 9 16.25H4.5V23.75H9C9.25546 23.75 9.5033 23.8466 9.70278 24.0239L13.5 27.3992V12.6008Z" fill="white"/>
<path d="M31.1705 14.1161C31.6098 14.6043 31.6098 15.3957 31.1705 15.8839L27.466 20L31.1705 24.1161C31.6098 24.6043 31.6098 25.3957 31.1705 25.8839C30.7312 26.372 30.0188 26.372 29.5795 25.8839L25.875 21.7678L22.1705 25.8839C21.7312 26.372 21.0188 26.372 20.5795 25.8839C20.1402 25.3957 20.1402 24.6043 20.5795 24.1161L24.284 20L20.5795 15.8839C20.1402 15.3957 20.1402 14.6043 20.5795 14.1161C21.0188 13.628 21.7312 13.628 22.1705 14.1161L25.875 18.2322L29.5795 14.1161C30.0188 13.628 30.7312 13.628 31.1705 14.1161Z" fill="white"/>
</svg>
